<svg width="255" height="64" viewBox="0 0 255 64" fill="none" xmlns="http://www.w3.org/2000/svg">
<path d="M15.0933 21.7563H24.5044C25.5501 21.7563 26.3866 22.7421 26.3866 23.9745C26.3866 25.2068 25.5501 26.1927 24.5044 26.1927H15.0933C15.4418 31.7793 19.4154 36.1335 24.2255 36.1335H24.5741C25.6198 36.1335 26.4563 37.1194 26.4563 38.3517C26.4563 39.5841 25.6198 40.5699 24.5741 40.5699H24.2255C19.4154 40.5699 15.4418 44.9242 15.0933 50.5108H40.1199C44.93 50.5108 48.9036 46.1565 49.2521 40.5699H39.841C38.7953 40.5699 37.9588 39.5841 37.9588 38.3517C37.9588 37.1194 38.7953 36.1335 39.841 36.1335H49.2521C48.9036 30.5469 44.93 26.1927 40.1199 26.1927H39.7713C38.7256 26.1927 37.8891 25.2068 37.8891 23.9745C37.8891 22.7421 38.7256 21.7563 39.7713 21.7563H40.1199C44.93 21.7563 48.9036 17.402 49.2521 11.8154H24.2255C19.4154 11.8154 15.4418 16.1697 15.0933 21.7563Z" fill="#201B21"/>
<path d="M52.5227 47V17.9091H62.3523C64.625 17.9091 66.4905 18.2973 67.9489 19.0739C69.4072 19.8409 70.4867 20.8968 71.1875 22.2415C71.8883 23.5862 72.2386 25.1155 72.2386 26.8295C72.2386 28.5436 71.8883 30.0634 71.1875 31.3892C70.4867 32.715 69.4119 33.7566 67.9631 34.5142C66.5142 35.2623 64.6629 35.6364 62.4091 35.6364H54.4545V32.4545H62.2955C63.8485 32.4545 65.0985 32.2273 66.0455 31.7727C67.0019 31.3182 67.6932 30.6742 68.1193 29.8409C68.5549 28.9981 68.7727 27.9943 68.7727 26.8295C68.7727 25.6648 68.5549 24.6468 68.1193 23.7756C67.6837 22.9044 66.9877 22.232 66.0312 21.7585C65.0748 21.2756 63.8106 21.0341 62.2386 21.0341H56.0455V47H52.5227ZM66.2159 33.9318L73.375 47H69.2841L62.2386 33.9318H66.2159ZM84.0746 47.5114C82.692 47.5114 81.4373 47.2509 80.3104 46.7301C79.1835 46.1998 78.2886 45.4375 77.6257 44.4432C76.9628 43.4394 76.6314 42.2273 76.6314 40.8068C76.6314 39.5568 76.8776 38.5436 77.37 37.767C77.8625 36.9811 78.5206 36.3655 79.3445 35.9205C80.1683 35.4754 81.0774 35.1439 82.0717 34.9261C83.0755 34.6989 84.084 34.5189 85.0973 34.3864C86.4231 34.2159 87.4979 34.0881 88.3217 34.0028C89.1551 33.9081 89.7611 33.7519 90.1399 33.5341C90.5282 33.3163 90.7223 32.9375 90.7223 32.3977V32.2841C90.7223 30.8826 90.3388 29.7936 89.5717 29.017C88.8142 28.2405 87.6636 27.8523 86.12 27.8523C84.5196 27.8523 83.2649 28.2027 82.3558 28.9034C81.4467 29.6042 80.8075 30.3523 80.4382 31.1477L77.2564 30.0114C77.8246 28.6856 78.5821 27.6534 79.5291 26.9148C80.4856 26.1667 81.5272 25.6458 82.6541 25.3523C83.7905 25.0492 84.9079 24.8977 86.0064 24.8977C86.7071 24.8977 87.5121 24.983 88.4212 25.1534C89.3397 25.3144 90.2251 25.6506 91.0774 26.1619C91.9392 26.6733 92.6541 27.4451 93.2223 28.4773C93.7905 29.5095 94.0746 30.892 94.0746 32.625V47H90.7223V44.0455H90.5518C90.3246 44.5189 89.9458 45.0256 89.4155 45.5653C88.8852 46.1051 88.1797 46.5644 87.299 46.9432C86.4183 47.322 85.3435 47.5114 84.0746 47.5114ZM84.5859 44.5C85.9117 44.5 87.0291 44.2396 87.9382 43.7188C88.8568 43.1979 89.5481 42.5256 90.0121 41.7017C90.4856 40.8778 90.7223 40.0114 90.7223 39.1023V36.0341C90.5803 36.2045 90.2678 36.3608 89.7848 36.5028C89.3113 36.6354 88.7621 36.7538 88.1371 36.858C87.5215 36.9527 86.9202 37.0379 86.3331 37.1136C85.7554 37.1799 85.2867 37.2367 84.9268 37.2841C84.0556 37.3977 83.2412 37.5824 82.4837 37.8381C81.7356 38.0843 81.1295 38.4583 80.6655 38.9602C80.2109 39.4527 79.9837 40.125 79.9837 40.9773C79.9837 42.142 80.4145 43.0227 81.2763 43.6193C82.1475 44.2064 83.2507 44.5 84.5859 44.5ZM108.432 47.4545C106.614 47.4545 105.009 46.9953 103.616 46.0767C102.224 45.1487 101.135 43.8419 100.349 42.1562C99.5634 40.4612 99.1705 38.4583 99.1705 36.1477C99.1705 33.8561 99.5634 31.8674 100.349 30.1818C101.135 28.4962 102.229 27.1941 103.631 26.2756C105.032 25.357 106.652 24.8977 108.489 24.8977C109.909 24.8977 111.031 25.1345 111.855 25.608C112.688 26.072 113.323 26.6023 113.759 27.1989C114.204 27.786 114.549 28.2689 114.795 28.6477H115.08V17.9091H118.432V47H115.193V43.6477H114.795C114.549 44.0455 114.199 44.5473 113.744 45.1534C113.29 45.75 112.641 46.285 111.798 46.7585C110.955 47.2225 109.833 47.4545 108.432 47.4545ZM108.886 44.4432C110.231 44.4432 111.367 44.0928 112.295 43.392C113.223 42.6818 113.929 41.7017 114.412 40.4517C114.895 39.1922 115.136 37.7386 115.136 36.0909C115.136 34.4621 114.9 33.0369 114.426 31.8153C113.953 30.5843 113.252 29.6278 112.324 28.946C111.396 28.2547 110.25 27.9091 108.886 27.9091C107.466 27.9091 106.282 28.2737 105.335 29.0028C104.398 29.7225 103.692 30.7027 103.219 31.9432C102.755 33.1742 102.523 34.5568 102.523 36.0909C102.523 37.6439 102.759 39.0549 103.233 40.3239C103.716 41.5833 104.426 42.5871 105.364 43.3352C106.311 44.0739 107.485 44.4432 108.886 44.4432ZM125.037 47V25.1818H128.389V47H125.037ZM126.741 21.5455C126.088 21.5455 125.525 21.3229 125.051 20.8778C124.587 20.4328 124.355 19.8977 124.355 19.2727C124.355 18.6477 124.587 18.1127 125.051 17.6676C125.525 17.2225 126.088 17 126.741 17C127.395 17 127.954 17.2225 128.418 17.6676C128.891 18.1127 129.128 18.6477 129.128 19.2727C129.128 19.8977 128.891 20.4328 128.418 20.8778C127.954 21.3229 127.395 21.5455 126.741 21.5455ZM140.95 47.5114C139.567 47.5114 138.312 47.2509 137.185 46.7301C136.058 46.1998 135.164 45.4375 134.501 44.4432C133.838 43.4394 133.506 42.2273 133.506 40.8068C133.506 39.5568 133.753 38.5436 134.245 37.767C134.737 36.9811 135.396 36.3655 136.219 35.9205C137.043 35.4754 137.952 35.1439 138.947 34.9261C139.951 34.6989 140.959 34.5189 141.972 34.3864C143.298 34.2159 144.373 34.0881 145.197 34.0028C146.03 33.9081 146.636 33.7519 147.015 33.5341C147.403 33.3163 147.597 32.9375 147.597 32.3977V32.2841C147.597 30.8826 147.214 29.7936 146.447 29.017C145.689 28.2405 144.539 27.8523 142.995 27.8523C141.395 27.8523 140.14 28.2027 139.231 28.9034C138.322 29.6042 137.683 30.3523 137.313 31.1477L134.131 30.0114C134.7 28.6856 135.457 27.6534 136.404 26.9148C137.361 26.1667 138.402 25.6458 139.529 25.3523C140.665 25.0492 141.783 24.8977 142.881 24.8977C143.582 24.8977 144.387 24.983 145.296 25.1534C146.215 25.3144 147.1 25.6506 147.952 26.1619C148.814 26.6733 149.529 27.4451 150.097 28.4773C150.665 29.5095 150.95 30.892 150.95 32.625V47H147.597V44.0455H147.427C147.2 44.5189 146.821 45.0256 146.29 45.5653C145.76 46.1051 145.055 46.5644 144.174 46.9432C143.293 47.322 142.219 47.5114 140.95 47.5114ZM141.461 44.5C142.787 44.5 143.904 44.2396 144.813 43.7188C145.732 43.1979 146.423 42.5256 146.887 41.7017C147.361 40.8778 147.597 40.0114 147.597 39.1023V36.0341C147.455 36.2045 147.143 36.3608 146.66 36.5028C146.186 36.6354 145.637 36.7538 145.012 36.858C144.397 36.9527 143.795 37.0379 143.208 37.1136C142.63 37.1799 142.162 37.2367 141.802 37.2841C140.931 37.3977 140.116 37.5824 139.359 37.8381C138.611 38.0843 138.004 38.4583 137.54 38.9602C137.086 39.4527 136.859 40.125 136.859 40.9773C136.859 42.142 137.29 43.0227 138.151 43.6193C139.022 44.2064 140.126 44.5 141.461 44.5ZM160.42 33.875V47H157.068V25.1818H160.307V28.5909H160.591C161.102 27.483 161.879 26.5928 162.92 25.9205C163.962 25.2386 165.307 24.8977 166.955 24.8977C168.432 24.8977 169.724 25.2008 170.832 25.8068C171.94 26.4034 172.802 27.3125 173.418 28.5341C174.033 29.7462 174.341 31.2803 174.341 33.1364V47H170.989V33.3636C170.989 31.6496 170.544 30.3144 169.653 29.358C168.763 28.392 167.542 27.9091 165.989 27.9091C164.919 27.9091 163.962 28.1411 163.119 28.6051C162.286 29.0691 161.628 29.7462 161.145 30.6364C160.662 31.5265 160.42 32.6061 160.42 33.875ZM189.33 47.4545C187.285 47.4545 185.523 46.9716 184.046 46.0057C182.569 45.0398 181.433 43.7093 180.637 42.0142C179.842 40.3191 179.444 38.3826 179.444 36.2045C179.444 33.9886 179.851 32.0331 180.665 30.3381C181.489 28.6335 182.635 27.303 184.103 26.3466C185.58 25.3807 187.304 24.8977 189.273 24.8977C190.808 24.8977 192.19 25.1818 193.421 25.75C194.652 26.3182 195.661 27.1136 196.447 28.1364C197.233 29.1591 197.72 30.3523 197.91 31.7159H194.558C194.302 30.7216 193.734 29.8409 192.853 29.0739C191.982 28.2973 190.808 27.9091 189.33 27.9091C188.023 27.9091 186.878 28.25 185.893 28.9318C184.917 29.6042 184.155 30.5559 183.606 31.7869C183.066 33.0085 182.796 34.4432 182.796 36.0909C182.796 37.7765 183.061 39.2443 183.592 40.4943C184.131 41.7443 184.889 42.715 185.864 43.4062C186.849 44.0975 188.004 44.4432 189.33 44.4432C190.201 44.4432 190.992 44.2917 191.702 43.9886C192.413 43.6856 193.014 43.25 193.506 42.6818C193.999 42.1136 194.349 41.4318 194.558 40.6364H197.91C197.72 41.9242 197.252 43.0843 196.504 44.1165C195.765 45.1392 194.785 45.9536 193.563 46.5597C192.351 47.1562 190.94 47.4545 189.33 47.4545ZM211.958 47.4545C209.856 47.4545 208.042 46.9905 206.518 46.0625C205.003 45.125 203.833 43.8182 203.009 42.142C202.195 40.4564 201.788 38.4962 201.788 36.2614C201.788 34.0265 202.195 32.0568 203.009 30.3523C203.833 28.6383 204.979 27.303 206.447 26.3466C207.924 25.3807 209.647 24.8977 211.617 24.8977C212.754 24.8977 213.876 25.0871 214.984 25.4659C216.092 25.8447 217.1 26.4602 218.009 27.3125C218.918 28.1553 219.643 29.2727 220.183 30.6648C220.722 32.0568 220.992 33.7708 220.992 35.8068V37.2273H204.174V34.3295H217.583C217.583 33.0985 217.337 32 216.844 31.0341C216.362 30.0682 215.67 29.3059 214.771 28.7472C213.88 28.1884 212.829 27.9091 211.617 27.9091C210.282 27.9091 209.127 28.2405 208.151 28.9034C207.185 29.5568 206.442 30.4091 205.921 31.4602C205.4 32.5114 205.14 33.6383 205.14 34.8409V36.7727C205.14 38.4205 205.424 39.8172 205.992 40.9631C206.57 42.0994 207.37 42.9659 208.393 43.5625C209.415 44.1496 210.604 44.4432 211.958 44.4432C212.839 44.4432 213.634 44.3201 214.344 44.0739C215.064 43.8182 215.684 43.4394 216.205 42.9375C216.726 42.4261 217.129 41.7917 217.413 41.0341L220.651 41.9432C220.31 43.0417 219.737 44.0076 218.933 44.8409C218.128 45.6648 217.133 46.3087 215.95 46.7727C214.766 47.2273 213.435 47.4545 211.958 47.4545Z" fill="black"/>
</svg>
