<svg width="64" height="64" viewBox="0 0 64 64" fill="none" xmlns="http://www.w3.org/2000/svg">
<path d="M0 16.4416H17.6327C19.5918 16.4416 21.1592 18.0722 21.1592 20.1104C21.1592 22.1486 19.5918 23.7792 17.6327 23.7792H0C0.653061 33.0191 8.09796 40.2208 17.1102 40.2208H17.7633C19.7224 40.2208 21.2898 41.8514 21.2898 43.8896C21.2898 45.9278 19.7224 47.5584 17.7633 47.5584H17.1102C8.09796 47.5584 0.653061 54.7601 0 64H46.8898C55.902 64 63.3469 56.7983 64 47.5584H46.3674C44.4082 47.5584 42.8408 45.9278 42.8408 43.8896C42.8408 41.8514 44.4082 40.2208 46.3674 40.2208H64C63.3469 30.9809 55.902 23.7792 46.8898 23.7792H46.2367C44.2775 23.7792 42.7102 22.1486 42.7102 20.1104C42.7102 18.0722 44.2775 16.4416 46.2367 16.4416H46.8898C55.902 16.4416 63.3469 9.23992 64 0H17.1102C8.09796 0 0.653061 7.2017 0 16.4416Z" fill="#201B21"/>
</svg>
